<svg xmlns="http://www.w3.org/2000/svg" width="181" height="31" viewBox="0 0 181 31"><g transform="translate(3.985 -15)"><g transform="translate(5 -2)"><rect width="7.25" height="22.9" rx="3.625" transform="translate(16.29 21.1)" fill="rgba(110,108,108,0.52)"/><path d="M2.826-.064A2.677,2.677,0,0,1,5.588,2.7L5.206,19.655a2.985,2.985,0,0,1-2.89,2.89A2.677,2.677,0,0,1-.445,19.782L-.064,2.826A2.985,2.985,0,0,1,2.826-.064Z" transform="translate(26.045 22.784) rotate(45)" fill="#b6d7f9"/><rect width="7.25" height="23.8" rx="3.625" transform="translate(31.815 29.67) rotate(90)" fill="#f5b3b3"/><path d="M2.826.064a2.985,2.985,0,0,1,2.89,2.89L6.1,19.909a2.677,2.677,0,0,1-2.762,2.762,2.985,2.985,0,0,1-2.89-2.89L.064,2.826A2.677,2.677,0,0,1,2.826.064Z" transform="translate(29.095 38.41) rotate(135)" fill="#bfea9e"/></g><text transform="translate(-3.985 40)" fill="#707070" font-size="22" font-family="SegoeUI-Bold, Segoe UI" font-weight="700"><tspan x="0" y="0">C</tspan></text><text transform="translate(40.015 39)" fill="#707070" font-size="22" font-family="SegoeUI-Bold, Segoe UI" font-weight="700"><tspan x="0" y="0">VID19</tspan></text><text transform="translate(106.015 39)" fill="#707070" font-size="20" font-family="SegoeUI, Segoe UI" opacity="0.79"><tspan x="0" y="0">Analysis</tspan></text></g></svg>